<?xml version="1.0" encoding="UTF-8"?>
<svg version="1.1" xmlns="http://www.w3.org/2000/svg" width="258" height="258">
<path d="M0 0 C2.70191984 -0.03225779 5.40344806 -0.05571462 8.10546875 -0.07421875 C9.24236145 -0.08914368 9.24236145 -0.08914368 10.40222168 -0.10437012 C16.96965983 -0.13803112 22.76937281 0.87141782 29 3 C29.98355469 3.32871094 30.96710938 3.65742187 31.98046875 3.99609375 C47.34799975 9.74152254 59.7978472 21.29051844 67 36 C70.58038763 44.93161562 73.14211356 52.88584116 73.19287109 62.55371094 C73.20513733 63.84739845 73.20513733 63.84739845 73.21765137 65.16722107 C73.24246559 68.02293215 73.25902026 70.87859326 73.2734375 73.734375 C73.27876118 74.71469948 73.28408485 75.69502396 73.28956985 76.70505524 C73.31629703 81.90411089 73.33566465 87.10314269 73.35009766 92.30224609 C73.36337774 96.57948473 73.39112082 100.8562396 73.43212891 105.13330078 C73.4818355 110.31865473 73.50626612 115.50357363 73.51332474 120.68915558 C73.5199799 122.6520691 73.53504924 124.61497513 73.55921555 126.57775116 C73.7503454 143.05469932 71.72408998 157.14066557 62 171 C61.34257812 172.02287109 61.34257812 172.02287109 60.671875 173.06640625 C51.5468114 186.46556573 35.04017352 195.60097439 19.27734375 198.6015625 C-0.92916852 201.05813491 -19.08247193 195.46256074 -35 183 C-35 182.34 -35 181.68 -35 181 C-35.58007812 180.77054688 -36.16015625 180.54109375 -36.7578125 180.3046875 C-45.91627867 174.97554516 -51.72230498 160.50520423 -54.875 150.8125 C-56.74758591 143.36595955 -56.24107446 135.61616732 -56 128 C-44.35245595 121.40163761 -44.35245595 121.40163761 -39.8125 122 C-37 123 -37 123 -36 125 C-35.86837957 127.12347634 -35.76962892 129.24903421 -35.6875 131.375 C-34.84572141 143.8486282 -30.62271581 155.9819375 -21.375 164.75 C-9.42842352 174.50136417 3.12617544 176.35243609 18 175 C28.94764353 172.40284627 37.89341233 165.42671993 44.49609375 156.46484375 C49.6024057 148.09579742 51.11711718 139.15571429 51.14526367 129.48510742 C51.14862228 128.75741653 51.1519809 128.02972565 51.15544128 127.27998352 C51.16489382 124.88846094 51.16689157 122.49700882 51.16796875 120.10546875 C51.17118548 118.43166577 51.17454987 116.75786307 51.17805481 115.08406067 C51.18403198 111.57971546 51.18589618 108.07539486 51.18530273 104.57104492 C51.18520124 100.09923698 51.19884682 95.62758825 51.21607494 91.15581799 C51.22724009 87.69923693 51.22922055 84.24269381 51.22869301 80.78609657 C51.22986658 79.13841517 51.23425304 77.49073257 51.24202538 75.84306908 C51.3078371 60.44979677 49.78068251 47.47325098 38.80859375 35.74609375 C34.52020974 31.60590443 30.33264944 29.02812542 24.76953125 26.859375 C23.87468018 26.50842773 22.9798291 26.15748047 22.05786133 25.79589844 C21.37876709 25.53325195 20.69967285 25.27060547 20 25 C20.00999275 25.82899055 20.00999275 25.82899055 20.02018738 26.67472839 C20.08662483 32.43356501 20.13183542 38.19229252 20.16479492 43.95141602 C20.17986915 46.09989851 20.20033189 48.2483503 20.22631836 50.39672852 C20.26276114 53.48721908 20.27974019 56.57730231 20.29296875 59.66796875 C20.30845261 60.62648239 20.32393646 61.58499603 20.33988953 62.57255554 C20.34204518 71.13985072 20.34204518 71.13985072 17 75 C11.97778304 76.25166707 7.28726991 75.77236195 2.875 73.125 C-0.32449221 69.49890883 -0.12221476 67.21812015 -0.11352539 62.43896484 C-0.11367142 61.76567642 -0.11381744 61.092388 -0.1139679 60.3986969 C-0.11327027 58.16941119 -0.10548489 55.94020865 -0.09765625 53.7109375 C-0.09579154 52.16679937 -0.09436789 50.62266066 -0.09336853 49.07852173 C-0.08954754 45.01129528 -0.07972082 40.94410445 -0.06866455 36.87689209 C-0.05844144 32.7278288 -0.05386898 28.57875975 -0.04882812 24.4296875 C-0.03809819 16.28644197 -0.02102677 8.14322542 0 0 Z " fill="#fff" transform="translate(124,30)"/>
<path d="M0 0 C0.00146656 0.70053057 0.00293312 1.40106113 0.00444412 2.1228199 C0.04150811 19.1742977 0.10051729 36.22555836 0.18390274 53.27687263 C0.22369922 61.52280119 0.25608858 69.76863423 0.27099609 78.01464844 C0.2840095 85.2025265 0.31096605 92.39019445 0.35461307 99.57795417 C0.3772351 103.38329086 0.39291025 107.18836833 0.39188385 110.99377823 C0.39113765 114.5775447 0.40907118 118.160738 0.44116783 121.74435616 C0.45371289 123.68262379 0.44659958 125.62098762 0.43885803 127.5592804 C0.51565314 133.96762803 0.57900589 138.17820395 5 143 C9.29928639 146.77816077 13.17092316 147.29589966 18.71875 147.21484375 C23.24347798 146.78871355 26.05585378 144.91791994 29.25 141.8125 C33.50492998 134.97421967 33.30353776 127.37524763 33.34375 119.5703125 C33.3583728 118.49876923 33.37299561 117.42722595 33.38806152 116.32321167 C33.45008533 111.76441997 33.49014141 107.20550114 33.53173828 102.64648438 C33.56534587 99.30844609 33.6104542 95.97070213 33.65625 92.6328125 C33.6615271 91.59641632 33.6668042 90.56002014 33.67224121 89.49221802 C33.69236267 88.05965164 33.69236267 88.05965164 33.71289062 86.59814453 C33.72018188 85.75623566 33.72747314 84.91432678 33.73498535 84.04690552 C34 82 34 82 36 80 C40.05368414 79.30737411 44.24339167 79.08838689 47.95703125 81.015625 C50.59687796 83.14805592 51.92234981 84.76704943 53 88 C53.09633217 89.50176174 53.13810375 91.00737583 53.14526367 92.51220703 C53.15164352 93.42390656 53.15802338 94.33560608 53.16459656 95.27493286 C53.16570938 96.25928314 53.1668222 97.24363342 53.16796875 98.2578125 C53.17296135 99.78424881 53.17296135 99.78424881 53.17805481 101.34152222 C53.18312117 103.49851021 53.18546322 105.65550606 53.18530273 107.8125 C53.18747763 111.09128013 53.20560445 114.36971743 53.22460938 117.6484375 C53.22754578 119.74739469 53.22952892 121.84635347 53.23046875 123.9453125 C53.23765427 124.9175174 53.24483978 125.88972229 53.25224304 126.89138794 C53.21213892 139.02199871 50.38531126 147.97875327 42.078125 157.11328125 C34.08590274 164.57801684 25.0895688 167.31510656 14.29296875 167.15234375 C4.53638808 166.50412118 -4.2984987 162.06331944 -11 155 C-18.05892531 146.3669012 -20.45091753 137.1584915 -20.43237305 126.14404297 C-20.4425647 125.2159935 -20.45275635 124.28794403 -20.46325684 123.33177185 C-20.49315395 120.30184714 -20.50261693 117.27223974 -20.51171875 114.2421875 C-20.52858272 112.1265459 -20.54673525 110.01091422 -20.56611633 107.89529419 C-20.6134358 102.35521544 -20.64336175 96.81517691 -20.66955566 91.27496338 C-20.69945258 85.6103115 -20.7459514 79.94579793 -20.79101562 74.28125 C-20.87684321 63.18757262 -20.94427957 52.09386662 -21 41 C-21.64296588 42.26510422 -22.28352459 43.53143202 -22.92308044 44.79826355 C-23.28005225 45.50331622 -23.63702406 46.20836889 -24.00481319 46.9347868 C-27.38431235 53.9479287 -27.29419917 60.73789299 -27.30859375 68.35546875 C-27.33373531 70.77539323 -27.35913358 73.19531505 -27.38476562 75.61523438 C-27.41359062 79.41397516 -27.43762374 83.21267016 -27.45629883 87.01147461 C-27.47789287 90.68886888 -27.5173057 94.36575072 -27.55859375 98.04296875 C-27.55870956 99.18154831 -27.55882538 100.32012787 -27.5589447 101.49320984 C-27.57228348 102.55143448 -27.58562225 103.60965912 -27.59936523 104.69995117 C-27.60697121 106.09391365 -27.60697121 106.09391365 -27.61473083 107.51603699 C-28.07287769 110.46986755 -28.98597761 111.82274065 -31 114 C-35.97080429 116.77201478 -41.2586285 118.73607327 -47 118 C-48.81292998 116.18707002 -48.15608345 113.38356635 -48.17700195 110.94238281 C-48.18983719 109.64302795 -48.20267242 108.3436731 -48.21589661 107.00494385 C-48.22407154 105.57100812 -48.23151382 104.13706806 -48.23828125 102.703125 C-48.24235678 101.98108635 -48.2464323 101.2590477 -48.25063133 100.51512909 C-48.27153797 96.68115014 -48.28581025 92.8472073 -48.29516602 89.01318359 C-48.30613975 85.08287507 -48.34041887 81.15314708 -48.38033772 77.22304153 C-48.40673063 74.17890507 -48.4148785 71.13490085 -48.41844749 68.0906601 C-48.4232685 66.64441837 -48.43475155 65.19818072 -48.45348549 63.75205231 C-48.68102322 44.99620477 -42.59276405 29.13696938 -29.68994141 15.47290039 C-22.06385353 7.7817031 -11.2034364 0 0 0 Z " fill="#fff" transform="translate(116,33)"/>
<path d="M0 0 C3.0597733 1.74387915 5.39965689 3.79931379 7 7 C7.53118173 10.79415519 7.85089348 14.46331178 5.953125 17.890625 C3.63400553 20.70085213 1.72015775 22.75917792 -1.953125 23.2734375 C-6.24672199 23.46329043 -9.09582964 23.4342668 -12.5 20.625 C-16.2696153 16.66690394 -16.53456742 13.90016917 -16.46484375 8.5546875 C-15.78045405 4.79341973 -14.194174 3.17908416 -11.1328125 1.00390625 C-7.3630645 -0.77049895 -4.03423147 -1.00306663 0 0 Z " fill="#fff" transform="translate(137,118)"/>
</svg>
